<svg xmlns="http://www.w3.org/2000/svg" viewBox="0 0 100 100">
  <!-- Pizza base -->
  <circle cx="50" cy="50" r="45" fill="#F4D03F" stroke="#D35400" stroke-width="3"/>
  <!-- Tomato sauce -->
  <circle cx="50" cy="50" r="38" fill="#E74C3C"/>
  <!-- Mozzarella -->
  <circle cx="50" cy="50" r="4" fill="#F5F5DC"/>
  <!-- Salami slices -->
  <circle cx="30" cy="35" r="7" fill="#8B0000" stroke="#5D0000" stroke-width="1"/>
  <circle cx="70" cy="40" r="7" fill="#8B0000" stroke="#5D0000" stroke-width="1"/>
  <circle cx="55" cy="72" r="7" fill="#8B0000" stroke="#5D0000" stroke-width="1"/>
  <!-- Fat spots -->
  <circle cx="28" cy="34" r="1.5" fill="#FFF"/>
  <circle cx="68" cy="39" r="1.5" fill="#FFF"/>
  <circle cx="53" cy="71" r="1.5" fill="#FFF"/>
  <!-- Ham pieces -->
  <rect x="45" y="25" width="12" height="9" rx="2" fill="#FFB6C1" stroke="#E8A0A8" stroke-width="1"/>
  <rect x="22" y="55" width="12" height="9" rx="2" fill="#FFB6C1" stroke="#E8A0A8" stroke-width="1"/>
  <!-- Mushrooms -->
  <path d="M62 58 Q58 52 65 52 Q72 52 68 58 L65 66 Z" fill="#D5DBDB" stroke="#BDC3C7" stroke-width="1"/>
  <path d="M38 65 Q34 59 41 59 Q48 59 44 65 L41 73 Z" fill="#D5DBDB" stroke="#BDC3C7" stroke-width="1"/>
  <path d="M75 58 Q72 53 78 53 Q84 53 81 58 L78 64 Z" fill="#D5DBDB" stroke="#BDC3C7" stroke-width="1"/>
</svg>
