<svg xmlns="http://www.w3.org/2000/svg" viewBox="0 0 100 100">
  <!-- Pizza base -->
  <circle cx="50" cy="50" r="45" fill="#F4D03F" stroke="#D35400" stroke-width="3"/>
  <!-- Tomato sauce -->
  <circle cx="50" cy="50" r="38" fill="#E74C3C"/>
  <!-- Mozzarella -->
  <circle cx="50" cy="50" r="5" fill="#F5F5DC"/>
  <circle cx="30" cy="60" r="4" fill="#F5F5DC"/>
  <!-- Cooked ham pieces -->
  <rect x="28" y="28" width="14" height="10" rx="2" fill="#FFB6C1" stroke="#E8A0A8" stroke-width="1"/>
  <rect x="58" y="30" width="14" height="10" rx="2" fill="#FFB6C1" stroke="#E8A0A8" stroke-width="1"/>
  <rect x="62" y="62" width="14" height="10" rx="2" fill="#FFB6C1" stroke="#E8A0A8" stroke-width="1"/>
  <rect x="25" y="45" width="12" height="9" rx="2" fill="#FFB6C1" stroke="#E8A0A8" stroke-width="1"/>
  <!-- Mushrooms -->
  <path d="M50 28 Q46 22 53 22 Q60 22 56 28 L53 36 Z" fill="#D5DBDB" stroke="#BDC3C7" stroke-width="1"/>
  <path d="M70 48 Q66 42 73 42 Q80 42 76 48 L73 56 Z" fill="#D5DBDB" stroke="#BDC3C7" stroke-width="1"/>
  <path d="M45 68 Q41 62 48 62 Q55 62 51 68 L48 76 Z" fill="#D5DBDB" stroke="#BDC3C7" stroke-width="1"/>
  <path d="M28 70 Q25 65 31 65 Q37 65 34 70 L31 76 Z" fill="#D5DBDB" stroke="#BDC3C7" stroke-width="1"/>
</svg>
