<svg xmlns="http://www.w3.org/2000/svg" viewBox="0 0 100 100">
  <!-- Quesadilla (folded tortilla) - dessert style -->
  <path d="M10 55 Q50 20 90 55 L90 60 Q50 95 10 60 Z" fill="#F5DEB3" stroke="#D2B48C" stroke-width="2"/>
  <!-- Top tortilla layer -->
  <path d="M10 55 Q50 20 90 55" fill="none" stroke="#C4A76C" stroke-width="1"/>
  <!-- Nutella oozing out (chocolate) -->
  <path d="M18 57 Q22 65 18 73" fill="none" stroke="#4A3728" stroke-width="5" stroke-linecap="round"/>
  <path d="M35 58 Q38 68 35 75" fill="none" stroke="#4A3728" stroke-width="5" stroke-linecap="round"/>
  <path d="M52 57 Q48 67 52 74" fill="none" stroke="#4A3728" stroke-width="5" stroke-linecap="round"/>
  <path d="M68 58 Q72 66 68 73" fill="none" stroke="#4A3728" stroke-width="5" stroke-linecap="round"/>
  <path d="M82 57 Q85 64 82 70" fill="none" stroke="#4A3728" stroke-width="5" stroke-linecap="round"/>
  <!-- Hazelnut pieces -->
  <circle cx="28" cy="62" r="3" fill="#8B7355"/>
  <circle cx="60" cy="60" r="2.5" fill="#8B7355"/>
  <circle cx="75" cy="62" r="2.5" fill="#8B7355"/>
  <!-- Grill marks -->
  <g stroke="#C4A76C" stroke-width="2" opacity="0.5">
    <path d="M25 45 Q50 35 75 45"/>
    <path d="M20 52 Q50 42 80 52"/>
  </g>
</svg>
