<svg xmlns="http://www.w3.org/2000/svg" viewBox="0 0 100 100">
  <!-- Quesadilla (folded tortilla) -->
  <path d="M10 55 Q50 20 90 55 L90 60 Q50 95 10 60 Z" fill="#F5DEB3" stroke="#D2B48C" stroke-width="2"/>
  <!-- Top tortilla layer -->
  <path d="M10 55 Q50 20 90 55" fill="none" stroke="#C4A76C" stroke-width="1"/>
  <!-- Melted cheese -->
  <path d="M22 57 Q25 63 22 68" fill="none" stroke="#F4D03F" stroke-width="3" stroke-linecap="round"/>
  <path d="M72 57 Q75 63 72 68" fill="none" stroke="#F4D03F" stroke-width="3" stroke-linecap="round"/>
  <!-- Mushroom slices visible -->
  <path d="M32 56 Q28 52 35 52 Q42 52 38 56 L35 62 Z" fill="#D5DBDB" stroke="#BDC3C7" stroke-width="1"/>
  <path d="M52 55 Q48 51 55 51 Q62 51 58 55 L55 61 Z" fill="#D5DBDB" stroke="#BDC3C7" stroke-width="1"/>
  <path d="M72 56 Q68 52 75 52 Q82 52 78 56 L75 62 Z" fill="#D5DBDB" stroke="#BDC3C7" stroke-width="1"/>
  <!-- Grill marks -->
  <g stroke="#C4A76C" stroke-width="2" opacity="0.5">
    <path d="M25 45 Q50 35 75 45"/>
    <path d="M20 52 Q50 42 80 52"/>
  </g>
</svg>
